<mxfile host="Electron" agent="Mozilla/5.0 (Windows NT 10.0; Win64; x64) AppleWebKit/537.36 (KHTML, like Gecko) draw.io/24.7.5 Chrome/126.0.6478.183 Electron/31.3.0 Safari/537.36" version="24.7.5">
  <diagram name="Page-1" id="58cdce13-f638-feb5-8d6f-7d28b1aa9fa0">
    <mxGraphModel dx="880" dy="524" grid="1" gridSize="10" guides="1" tooltips="1" connect="1" arrows="1" fold="1" page="1" pageScale="1" pageWidth="1100" pageHeight="850" background="none" math="0" shadow="0">
      <root>
        <mxCell id="0" />
        <mxCell id="1" parent="0" />
        <mxCell id="OAc0oZ9CUxkOhMWBwGey-3" value="" style="ellipse;html=1;shape=startState;fillColor=#000000;strokeColor=#ff0000;" vertex="1" parent="1">
          <mxGeometry x="340" y="10" width="30" height="30" as="geometry" />
        </mxCell>
        <mxCell id="OAc0oZ9CUxkOhMWBwGey-4" value="" style="edgeStyle=orthogonalEdgeStyle;html=1;verticalAlign=bottom;endArrow=open;endSize=8;strokeColor=#ff0000;rounded=0;entryX=0.5;entryY=0;entryDx=0;entryDy=0;" edge="1" source="OAc0oZ9CUxkOhMWBwGey-3" parent="1" target="OAc0oZ9CUxkOhMWBwGey-10">
          <mxGeometry relative="1" as="geometry">
            <mxPoint x="355" y="100" as="targetPoint" />
          </mxGeometry>
        </mxCell>
        <mxCell id="OAc0oZ9CUxkOhMWBwGey-51" style="edgeStyle=orthogonalEdgeStyle;rounded=0;orthogonalLoop=1;jettySize=auto;html=1;entryX=0.925;entryY=0.1;entryDx=0;entryDy=0;entryPerimeter=0;exitX=1;exitY=0.5;exitDx=0;exitDy=0;strokeColor=#FF0000;endArrow=open;endFill=0;" edge="1" parent="1" source="OAc0oZ9CUxkOhMWBwGey-10" target="OAc0oZ9CUxkOhMWBwGey-23">
          <mxGeometry relative="1" as="geometry">
            <mxPoint x="500" y="210" as="targetPoint" />
          </mxGeometry>
        </mxCell>
        <mxCell id="OAc0oZ9CUxkOhMWBwGey-10" value="New User" style="rhombus;whiteSpace=wrap;html=1;fontColor=#000000;fillColor=#ffffc0;strokeColor=#ff0000;" vertex="1" parent="1">
          <mxGeometry x="315" y="110" width="80" height="40" as="geometry" />
        </mxCell>
        <mxCell id="OAc0oZ9CUxkOhMWBwGey-13" value="" style="shape=line;html=1;strokeWidth=6;strokeColor=#ff0000;" vertex="1" parent="1">
          <mxGeometry x="110" y="200" width="200" height="10" as="geometry" />
        </mxCell>
        <mxCell id="OAc0oZ9CUxkOhMWBwGey-14" value="" style="edgeStyle=orthogonalEdgeStyle;html=1;verticalAlign=bottom;endArrow=open;endSize=8;strokeColor=#ff0000;rounded=0;entryX=0.5;entryY=0;entryDx=0;entryDy=0;" edge="1" source="OAc0oZ9CUxkOhMWBwGey-13" parent="1" target="OAc0oZ9CUxkOhMWBwGey-17">
          <mxGeometry relative="1" as="geometry">
            <mxPoint x="210" y="320" as="targetPoint" />
          </mxGeometry>
        </mxCell>
        <mxCell id="OAc0oZ9CUxkOhMWBwGey-16" style="edgeStyle=orthogonalEdgeStyle;rounded=0;orthogonalLoop=1;jettySize=auto;html=1;entryX=0.525;entryY=0.7;entryDx=0;entryDy=0;entryPerimeter=0;strokeColor=#FF0000;" edge="1" parent="1" source="OAc0oZ9CUxkOhMWBwGey-10" target="OAc0oZ9CUxkOhMWBwGey-13">
          <mxGeometry relative="1" as="geometry" />
        </mxCell>
        <mxCell id="OAc0oZ9CUxkOhMWBwGey-17" value="Register" style="rounded=1;whiteSpace=wrap;html=1;arcSize=40;fontColor=#000000;fillColor=#ffffc0;strokeColor=#ff0000;" vertex="1" parent="1">
          <mxGeometry x="150" y="270" width="120" height="40" as="geometry" />
        </mxCell>
        <mxCell id="OAc0oZ9CUxkOhMWBwGey-22" value="No" style="text;html=1;align=center;verticalAlign=middle;whiteSpace=wrap;rounded=0;" vertex="1" parent="1">
          <mxGeometry x="250" y="110" width="55" height="20" as="geometry" />
        </mxCell>
        <mxCell id="OAc0oZ9CUxkOhMWBwGey-23" value="" style="shape=line;html=1;strokeWidth=6;strokeColor=#ff0000;" vertex="1" parent="1">
          <mxGeometry x="330" y="330" width="200" height="10" as="geometry" />
        </mxCell>
        <mxCell id="OAc0oZ9CUxkOhMWBwGey-24" value="" style="edgeStyle=orthogonalEdgeStyle;html=1;verticalAlign=bottom;endArrow=open;endSize=8;strokeColor=#ff0000;rounded=0;entryX=0.5;entryY=0;entryDx=0;entryDy=0;" edge="1" source="OAc0oZ9CUxkOhMWBwGey-23" parent="1" target="OAc0oZ9CUxkOhMWBwGey-25">
          <mxGeometry relative="1" as="geometry">
            <mxPoint x="520" y="245" as="targetPoint" />
          </mxGeometry>
        </mxCell>
        <mxCell id="OAc0oZ9CUxkOhMWBwGey-52" style="edgeStyle=orthogonalEdgeStyle;rounded=0;orthogonalLoop=1;jettySize=auto;html=1;strokeColor=#FF0000;endArrow=open;endFill=0;" edge="1" parent="1" source="OAc0oZ9CUxkOhMWBwGey-25">
          <mxGeometry relative="1" as="geometry">
            <mxPoint x="335" y="540" as="targetPoint" />
          </mxGeometry>
        </mxCell>
        <mxCell id="OAc0oZ9CUxkOhMWBwGey-25" value="Login" style="rounded=1;whiteSpace=wrap;html=1;arcSize=40;fontColor=#000000;fillColor=#ffffc0;strokeColor=#ff0000;" vertex="1" parent="1">
          <mxGeometry x="275" y="405" width="120" height="40" as="geometry" />
        </mxCell>
        <mxCell id="OAc0oZ9CUxkOhMWBwGey-32" style="edgeStyle=orthogonalEdgeStyle;rounded=0;orthogonalLoop=1;jettySize=auto;html=1;entryX=0.5;entryY=0;entryDx=0;entryDy=0;strokeColor=#FF0000;endArrow=open;endFill=0;" edge="1" parent="1" source="OAc0oZ9CUxkOhMWBwGey-28" target="OAc0oZ9CUxkOhMWBwGey-30">
          <mxGeometry relative="1" as="geometry" />
        </mxCell>
        <mxCell id="OAc0oZ9CUxkOhMWBwGey-49" style="edgeStyle=orthogonalEdgeStyle;rounded=0;orthogonalLoop=1;jettySize=auto;html=1;entryX=0.417;entryY=0.1;entryDx=0;entryDy=0;exitX=0.75;exitY=0.5;exitDx=0;exitDy=0;exitPerimeter=0;entryPerimeter=0;strokeColor=#FF0000;endArrow=open;endFill=0;" edge="1" parent="1" source="OAc0oZ9CUxkOhMWBwGey-28" target="OAc0oZ9CUxkOhMWBwGey-44">
          <mxGeometry relative="1" as="geometry" />
        </mxCell>
        <mxCell id="OAc0oZ9CUxkOhMWBwGey-53" style="edgeStyle=orthogonalEdgeStyle;rounded=0;orthogonalLoop=1;jettySize=auto;html=1;exitX=0.25;exitY=0.5;exitDx=0;exitDy=0;exitPerimeter=0;entryX=0.5;entryY=0;entryDx=0;entryDy=0;strokeColor=#FF0000;endArrow=open;endFill=0;" edge="1" parent="1" source="OAc0oZ9CUxkOhMWBwGey-28" target="OAc0oZ9CUxkOhMWBwGey-33">
          <mxGeometry relative="1" as="geometry" />
        </mxCell>
        <mxCell id="OAc0oZ9CUxkOhMWBwGey-28" value="" style="shape=line;html=1;strokeWidth=6;strokeColor=#ff0000;" vertex="1" parent="1">
          <mxGeometry x="235" y="530" width="200" height="10" as="geometry" />
        </mxCell>
        <mxCell id="OAc0oZ9CUxkOhMWBwGey-29" value="" style="edgeStyle=orthogonalEdgeStyle;html=1;verticalAlign=bottom;endArrow=open;endSize=8;strokeColor=#ff0000;rounded=0;entryX=0.5;entryY=0;entryDx=0;entryDy=0;" edge="1" source="OAc0oZ9CUxkOhMWBwGey-28" parent="1" target="OAc0oZ9CUxkOhMWBwGey-37">
          <mxGeometry relative="1" as="geometry">
            <mxPoint x="520" y="600" as="targetPoint" />
          </mxGeometry>
        </mxCell>
        <mxCell id="OAc0oZ9CUxkOhMWBwGey-30" value="Loan Eligibility Prediction" style="rounded=1;whiteSpace=wrap;html=1;arcSize=40;fontColor=#000000;fillColor=#ffffc0;strokeColor=#ff0000;" vertex="1" parent="1">
          <mxGeometry x="40" y="620" width="120" height="40" as="geometry" />
        </mxCell>
        <mxCell id="OAc0oZ9CUxkOhMWBwGey-31" value="" style="html=1;verticalAlign=bottom;endArrow=open;endSize=8;strokeColor=#ff0000;rounded=0;edgeStyle=orthogonalEdgeStyle;exitX=0.5;exitY=1;exitDx=0;exitDy=0;entryX=0.055;entryY=0.4;entryDx=0;entryDy=0;entryPerimeter=0;" edge="1" source="OAc0oZ9CUxkOhMWBwGey-30" parent="1" target="OAc0oZ9CUxkOhMWBwGey-47">
          <mxGeometry relative="1" as="geometry">
            <mxPoint x="220" y="760" as="targetPoint" />
          </mxGeometry>
        </mxCell>
        <mxCell id="OAc0oZ9CUxkOhMWBwGey-33" value="View Prediction" style="rounded=1;whiteSpace=wrap;html=1;arcSize=40;fontColor=#000000;fillColor=#ffffc0;strokeColor=#ff0000;" vertex="1" parent="1">
          <mxGeometry x="170" y="610" width="120" height="40" as="geometry" />
        </mxCell>
        <mxCell id="OAc0oZ9CUxkOhMWBwGey-34" value="" style="edgeStyle=orthogonalEdgeStyle;html=1;verticalAlign=bottom;endArrow=open;endSize=8;strokeColor=#ff0000;rounded=0;exitX=0.5;exitY=1;exitDx=0;exitDy=0;entryX=0.2;entryY=0;entryDx=0;entryDy=0;entryPerimeter=0;" edge="1" source="OAc0oZ9CUxkOhMWBwGey-33" parent="1" target="OAc0oZ9CUxkOhMWBwGey-47">
          <mxGeometry relative="1" as="geometry">
            <mxPoint x="310" y="720" as="targetPoint" />
            <Array as="points">
              <mxPoint x="230" y="690" />
              <mxPoint x="370" y="690" />
            </Array>
          </mxGeometry>
        </mxCell>
        <mxCell id="OAc0oZ9CUxkOhMWBwGey-37" value="View Accuracy" style="rounded=1;whiteSpace=wrap;html=1;arcSize=40;fontColor=#000000;fillColor=#ffffc0;strokeColor=#ff0000;" vertex="1" parent="1">
          <mxGeometry x="320" y="610" width="120" height="40" as="geometry" />
        </mxCell>
        <mxCell id="OAc0oZ9CUxkOhMWBwGey-38" value="" style="edgeStyle=orthogonalEdgeStyle;html=1;verticalAlign=bottom;endArrow=open;endSize=8;strokeColor=#ff0000;rounded=0;exitX=0.5;exitY=1;exitDx=0;exitDy=0;" edge="1" source="OAc0oZ9CUxkOhMWBwGey-37" parent="1" target="OAc0oZ9CUxkOhMWBwGey-47">
          <mxGeometry relative="1" as="geometry">
            <mxPoint x="470" y="720" as="targetPoint" />
            <Array as="points">
              <mxPoint x="380" y="690" />
              <mxPoint x="430" y="690" />
            </Array>
          </mxGeometry>
        </mxCell>
        <mxCell id="OAc0oZ9CUxkOhMWBwGey-42" value="Delete Prediction" style="rounded=1;whiteSpace=wrap;html=1;arcSize=40;fontColor=#000000;fillColor=#ffffc0;strokeColor=#ff0000;" vertex="1" parent="1">
          <mxGeometry x="450" y="610" width="120" height="40" as="geometry" />
        </mxCell>
        <mxCell id="OAc0oZ9CUxkOhMWBwGey-43" value="" style="edgeStyle=orthogonalEdgeStyle;html=1;verticalAlign=bottom;endArrow=open;endSize=8;strokeColor=#ff0000;rounded=0;exitX=0.5;exitY=1;exitDx=0;exitDy=0;entryX=0.75;entryY=0.5;entryDx=0;entryDy=0;entryPerimeter=0;" edge="1" source="OAc0oZ9CUxkOhMWBwGey-42" parent="1" target="OAc0oZ9CUxkOhMWBwGey-47">
          <mxGeometry relative="1" as="geometry">
            <mxPoint x="630" y="720" as="targetPoint" />
            <Array as="points">
              <mxPoint x="510" y="680" />
              <mxPoint x="480" y="680" />
            </Array>
          </mxGeometry>
        </mxCell>
        <mxCell id="OAc0oZ9CUxkOhMWBwGey-44" value="View Prediction History" style="rounded=1;whiteSpace=wrap;html=1;arcSize=40;fontColor=#000000;fillColor=#ffffc0;strokeColor=#ff0000;" vertex="1" parent="1">
          <mxGeometry x="580" y="610" width="120" height="40" as="geometry" />
        </mxCell>
        <mxCell id="OAc0oZ9CUxkOhMWBwGey-45" value="" style="edgeStyle=orthogonalEdgeStyle;html=1;verticalAlign=bottom;endArrow=open;endSize=8;strokeColor=#ff0000;rounded=0;exitX=0.5;exitY=1;exitDx=0;exitDy=0;entryX=0.95;entryY=0.4;entryDx=0;entryDy=0;entryPerimeter=0;" edge="1" source="OAc0oZ9CUxkOhMWBwGey-44" parent="1" target="OAc0oZ9CUxkOhMWBwGey-47">
          <mxGeometry relative="1" as="geometry">
            <mxPoint x="760" y="720" as="targetPoint" />
            <Array as="points">
              <mxPoint x="640" y="700" />
              <mxPoint x="520" y="700" />
            </Array>
          </mxGeometry>
        </mxCell>
        <mxCell id="OAc0oZ9CUxkOhMWBwGey-54" style="edgeStyle=orthogonalEdgeStyle;rounded=0;orthogonalLoop=1;jettySize=auto;html=1;entryX=0.5;entryY=0;entryDx=0;entryDy=0;" edge="1" parent="1" source="OAc0oZ9CUxkOhMWBwGey-47" target="OAc0oZ9CUxkOhMWBwGey-48">
          <mxGeometry relative="1" as="geometry" />
        </mxCell>
        <mxCell id="OAc0oZ9CUxkOhMWBwGey-47" value="" style="shape=line;html=1;strokeWidth=6;strokeColor=#ff0000;" vertex="1" parent="1">
          <mxGeometry x="330" y="750" width="200" height="10" as="geometry" />
        </mxCell>
        <mxCell id="OAc0oZ9CUxkOhMWBwGey-48" value="" style="ellipse;html=1;shape=endState;fillColor=#000000;strokeColor=#ff0000;" vertex="1" parent="1">
          <mxGeometry x="415" y="810" width="30" height="30" as="geometry" />
        </mxCell>
        <mxCell id="OAc0oZ9CUxkOhMWBwGey-50" style="edgeStyle=orthogonalEdgeStyle;rounded=0;orthogonalLoop=1;jettySize=auto;html=1;entryX=0.25;entryY=0.5;entryDx=0;entryDy=0;entryPerimeter=0;endArrow=open;endFill=0;strokeColor=#FF0000;" edge="1" parent="1" source="OAc0oZ9CUxkOhMWBwGey-17" target="OAc0oZ9CUxkOhMWBwGey-23">
          <mxGeometry relative="1" as="geometry" />
        </mxCell>
        <mxCell id="OAc0oZ9CUxkOhMWBwGey-55" style="edgeStyle=orthogonalEdgeStyle;rounded=0;orthogonalLoop=1;jettySize=auto;html=1;exitX=0.75;exitY=0.5;exitDx=0;exitDy=0;exitPerimeter=0;strokeColor=#FF0000;endArrow=open;endFill=0;" edge="1" parent="1" source="OAc0oZ9CUxkOhMWBwGey-28">
          <mxGeometry relative="1" as="geometry">
            <mxPoint x="510" y="610" as="targetPoint" />
            <Array as="points">
              <mxPoint x="385" y="570" />
              <mxPoint x="510" y="570" />
            </Array>
          </mxGeometry>
        </mxCell>
        <mxCell id="OAc0oZ9CUxkOhMWBwGey-56" value="Yes" style="text;html=1;align=center;verticalAlign=middle;whiteSpace=wrap;rounded=0;" vertex="1" parent="1">
          <mxGeometry x="407" y="106" width="60" height="30" as="geometry" />
        </mxCell>
      </root>
    </mxGraphModel>
  </diagram>
</mxfile>
